<svg xmlns="http://www.w3.org/2000/svg" shape-rendering="geometricPrecision" text-rendering="geometricPrecision" image-rendering="optimizeQuality" fill-rule="evenodd" clip-rule="evenodd" viewBox="0 0 437 512.544"><path fill="#0A2933" fill-rule="nonzero" d="M253.078 486.665c-8.704-7.918-15.626-18.283-20.743-31.087-4.796-12-8.026-26.218-9.666-42.635l-.056-.804a664.373 664.373 0 01-1.939-29.496 859.938 859.938 0 01-.422-11.909l-4.961.37a761.717 761.717 0 01-2.682 17.687c-1.522 9.23-3.148 17.973-4.87 26.191-1.4 10.096-3.43 19.365-6.069 27.804-2.753 8.809-6.252 16.9-10.483 24.239-8.765 15.205-20.739 26.674-35.896 34.383l-.843.395c-7.235 3.579-15.3 6.288-24.178 8.096-33.952 6.905-82.505 1.044-107.209-26.56-8.048-8.988-13.978-21.114-17.774-36.361C1.765 432.817 0 415.834 0 396.056c0-8.07.496-17.257 1.483-27.557.952-9.939 2.365-20.565 4.226-31.839a743.812 743.812 0 016.643-34.943c2.492-11.622 5.427-23.957 8.796-36.983a1130.285 1130.285 0 0110.517-37.943c3.627-12.257 7.639-24.974 12.018-38.113 12.183-36.544 28.556-78.305 49.356-111.435 7.483-11.913 15.179-22.118 23.083-30.6 7.883-8.47 16.165-15.779 24.826-21.909 8.848-6.265 17.856-11.152 27.013-14.643 8.848-3.379 18.104-5.948 27.743-7.691 40.878-7.414 90.3 2.66 124.905 25.951 13 8.744 24.878 20.722 35.608 35.905 10.344 14.63 19.718 32.387 28.105 53.239 4.743 11.748 9.243 24.052 13.487 36.896 4.108 12.426 8.278 26.356 12.499 41.765a742.71 742.71 0 0110.953 45.648 833.354 833.354 0 018.473 47.965 687.004 687.004 0 015.436 49.444 677.208 677.208 0 011.83 49.395c0 41.509-9.196 72.457-27.578 92.822-9.466 10.487-20.857 18.365-34.152 23.6-35.375 13.947-92.9 8.278-122.192-18.365zm-30-302.357c-7.143 20.144-16.813 48.409-16.813 67.3 0 3.761.474 6.939 1.67 9.07h10.834c14.514 0 19.231-7.709 19.231-18.244 0-16.53-7.752-38.956-14.922-58.126z"/><path fill="#3ED598" d="M371.008 122.83c9.031 22.365 17.527 48.061 25.483 77.091 7.957 29.026 14.3 59.67 19.03 91.926 4.731 32.252 7.096 64.509 7.096 96.761 0 37.848-7.956 65.587-23.869 83.217-15.913 17.635-38.274 26.448-67.087 26.448-24.087 0-43.222-6.448-57.418-19.352-14.187-12.9-22.791-34.404-25.799-64.509-1.722-19.352-2.583-39.348-2.583-59.991l-43.222 3.222c-2.578 20.213-5.591 38.491-9.03 54.835-2.578 18.921-7.526 34.726-14.835 47.413-7.313 12.687-17.313 22.256-30 28.708-12.687 6.448-28.491 9.674-47.413 9.674-24.513 0-43.222-7.2-56.122-21.608-12.904-14.409-19.352-40.318-19.352-77.735 0-15.913 1.826-34.944 5.483-57.092 3.656-22.147 8.709-45.691 15.156-70.634 6.452-24.944 13.874-49.996 22.257-75.157 8.387-25.156 17.526-48.487 27.417-69.991 13.331-28.813 27.309-51.07 41.931-66.765 14.621-15.7 30.104-26.666 46.447-32.9 16.344-6.239 33.544-9.357 51.609-9.357 27.952 0 53.435 7.744 76.443 23.226 23.009 15.483 42.466 43.005 58.378 82.57zM212.704 277.934h17.57c47.496 0 34.948-48.278 20.713-87.717-3.713-10.292-11.243-38.735-24.269-39.187-3.775-.131-7.592 2.452-10.666 9.721-8.048 26.105-48.069 117.183-3.348 117.183z"/><path fill="#fff" fill-rule="nonzero" d="M153.757 90.073c2.921-3.739 8.326-4.404 12.065-1.482 3.739 2.921 4.404 8.326 1.483 12.065-6.401 8.183-13.213 18.587-19.862 30.47-6.382 11.404-12.521 24.004-17.895 37.082-1.804 4.391-6.831 6.487-11.222 4.683-4.391-1.805-6.487-6.831-4.682-11.222 5.726-13.935 12.156-27.157 18.765-38.97 6.982-12.482 14.304-23.626 21.348-32.626zm-49.744 99.783c1.244-4.596 5.987-7.313 10.583-6.069 4.596 1.243 7.313 5.986 6.069 10.582l-1.047 3.948-.97 4.052c-1.061 4.63-5.683 7.53-10.313 6.47-4.63-1.061-7.53-5.683-6.47-10.314l2.148-8.669z"/></svg>