<svg xmlns="http://www.w3.org/2000/svg" shape-rendering="geometricPrecision" text-rendering="geometricPrecision" image-rendering="optimizeQuality" fill-rule="evenodd" clip-rule="evenodd" viewBox="0 0 401 512.03"><g fill-rule="nonzero"><path fill="#0A2933" d="M67.12 508.09c-3.39-.56-6.69-1.34-9.87-2.34-7.44-2.33-14.21-5.83-20.31-10.5-6.24-4.77-11.48-10.75-15.71-17.91-3.98-6.74-7.07-14.59-9.24-23.51l-.11-.51c-1.69-8.22-3.24-17.65-4.65-28.28-1.48-11.13-2.77-22.8-3.84-34.99-1.07-12.26-1.91-25.59-2.5-39.93C.3 335.69 0 321.56 0 307.72c0-5.94.1-14.42.29-25.69.14-9.22.38-18.81.68-28.76.32-10.59.72-20.87 1.21-30.8.54-10.9 1.15-21.28 1.82-31.11.77-11.14 1.5-21.23 2.2-30.1.55-7.02 1.36-16.41 2.41-28.18C12.68 87.72 17.18 26.55 65.37 6.26c32.27-13.59 85.11-4.82 106.27 24.06 6.24 8.51 10.92 17.96 14.02 28.29 3.05 10.13 4.57 21.04 4.57 32.71 0 11.62-.55 24.66-1.67 39.09l2.17-1.26c8.53-4.86 17.79-8.48 27.75-10.85 9.8-2.34 20.33-3.51 31.55-3.51 14.78 0 28.57 1.91 41.38 5.74 9.8 1.98 19.07 5 27.81 9.03 17.29 7.99 32.28 19.91 44.93 35.76 12.47 15.61 21.78 35.4 27.92 59.36 5.95 23.23 8.93 50.26 8.93 81.05 0 21.49-1.66 41.47-4.99 59.92-3.35 18.59-8.39 35.4-15.13 50.39-6.8 15.14-14.92 28.45-24.34 39.92-9.55 11.63-20.45 21.37-32.67 29.17-12.17 7.78-25.14 13.59-38.89 17.45-13.8 3.87-28.31 5.8-43.51 5.8-13.03 0-25.28-1.73-36.73-5.24a114.08 114.08 0 01-15.23-4.09c-12.65-4.37-23.98-10.87-33.94-19.54-1.41-1.24-2.98-2.76-4.63-4.51-2.2 3.97-4.57 7.62-7.11 10.96v.06c-6.49 8.52-14.08 14.97-22.78 19.35-8.81 4.44-18.48 6.66-29 6.66-8.28 0-16.06-1.14-23.32-3.41l-1.61-.53zm124.73-253.1c-3.86 2-7.37 5.14-10.5 9.4-3.33 4.56-5.9 10.5-7.67 17.83-1.92 7.96-2.88 17.63-2.88 28.98 0 10.69 1 20.31 3.02 28.86 1.94 8.25 4.8 15.53 8.56 21.8 6.53 10.87 11.61 16.81 23.4 10 3.83-2.2 7.55-5.76 11.14-10.65 3.59-4.9 6.36-11.47 8.28-19.69 2.12-9 3.18-19.86 3.18-32.58 0-10.06-.83-19.01-2.47-26.85-1.59-7.55-3.91-14.15-6.97-19.76-6.23-11.46-15.51-13.34-27.09-7.34z"/><path fill="#3ED598" d="M150.79 434.74c-4.63 18.41-10.75 32.61-18.34 42.58-10.33 13.57-23.8 20.35-40.4 20.35-13.77 0-25.41-3.65-34.92-10.94-9.52-7.28-16.1-18.41-19.74-33.4-3.24-15.79-5.98-36.34-8.2-61.65-2.23-25.31-3.34-52.34-3.34-81.08 0-15.8.3-33.82.91-54.06.6-20.25 1.61-40.7 3.03-61.35 1.42-20.65 2.94-39.99 4.56-58 1.62-18.03 3.24-32.71 4.86-44.04 4.04-23.49 11.64-42.02 22.78-55.59C73.12 24 89.22 17.22 110.27 17.22c22.68 0 39.28 7.19 49.81 21.57 10.53 14.37 15.79 31.88 15.79 52.53 0 17.82-1.31 38.88-3.95 63.17-.99 9.21-2.23 26.76-5.38 34.87 2.12-3.95 4.44-7.78 6.9-11.49 9.31-13.96 21.26-25.1 35.84-33.4 14.58-8.3 31.98-12.45 52.24-12.45 38.46 0 68.94 14.07 91.42 42.21 22.47 28.14 33.7 71.98 33.7 131.5 0 41.71-6.27 76.53-18.83 104.48-12.55 27.94-29.76 48.89-51.63 62.86-21.86 13.97-46.77 20.95-74.71 20.95-25.91 0-47.66-7.39-64.99-22.47-8.31-7.24-22.76-26.46-25.69-36.81zm55.46-42.75c12.95 0 24.19-6.49 33.71-19.44 9.51-12.96 14.26-33.21 14.26-60.74 0-21.87-3.74-39.69-11.23-53.45-7.49-13.77-20.14-20.65-37.96-20.65-14.58 0-26.32 6.07-35.23 18.21-8.91 12.15-13.36 30.58-13.36 55.28 0 23.49 4.55 42.82 13.66 58.01 9.11 15.18 21.16 22.78 36.15 22.78z"/><path fill="#fff" d="M75.97 65.58c1.56-4.48 6.46-6.84 10.94-5.28 4.47 1.55 6.84 6.46 5.28 10.93-3.85 10.98-7.09 20.78-9.69 32.01-2.59 11.15-4.6 23.92-6.02 41.01-.39 4.74-4.55 8.27-9.29 7.88-4.73-.39-8.26-4.56-7.87-9.29 1.48-17.85 3.63-31.4 6.42-43.43 2.77-11.96 6.18-22.28 10.23-33.83zM56.4 168.54c.49-4.72 4.73-8.14 9.45-7.64 4.72.5 8.14 4.74 7.64 9.46l-.57 5.34c-.5 4.72-4.74 8.14-9.46 7.64a8.592 8.592 0 01-7.64-9.45l.58-5.35z"/></g></svg>