<svg xmlns="http://www.w3.org/2000/svg" shape-rendering="geometricPrecision" text-rendering="geometricPrecision" image-rendering="optimizeQuality" fill-rule="evenodd" clip-rule="evenodd" viewBox="0 0 427 512.094"><g fill-rule="nonzero"><path fill="#0A2933" d="M71.208 493.13c-12.076-5.73-22.542-13.292-31.363-22.677-8.73-9.281-15.81-20.346-21.231-33.156l-.048-.117c-3.325-8.061-6.168-16.773-8.512-26.102-2.301-9.155-4.202-19.182-5.687-30.056-1.458-10.657-2.548-22.074-3.26-34.241C.369 334.257 0 321.243 0 307.761c0-19.916.452-38.977 1.35-57.166.886-17.975 2.197-34.345 3.929-49.069 1.766-15.067 3.928-29.001 6.463-41.79 2.561-12.944 5.552-24.869 8.951-35.751 3.369-10.774 7.206-20.867 11.49-30.256 4.332-9.49 9.051-18.063 14.139-25.699l.573-.802c7.132-10.596 16.195-20.016 27.169-28.212 10.909-8.152 23.91-15.236 38.99-21.244 14.889-5.934 32.626-10.353 53.189-13.249 45.974-6.468 110.054-7.145 155.434 5.626 43.11 9.52 83.462 31.81 97.384 76.343 3.138 10.054 4.714 20.628 4.714 31.711 0 15.952-2.6 30.586-7.792 43.877-5.248 13.427-13.14 25.355-23.649 35.743-9.78 9.668-21.14 18.358-34.063 26.05l-5.018 2.895c1.992.699 3.95 1.433 5.869 2.206 14.134 5.69 26.345 13.417 36.593 23.175 10.557 10.041 18.458 22.295 23.689 36.733 5.061 13.973 7.596 29.844 7.596 47.58 0 13.188-1.971 25.959-5.895 38.3-3.907 12.281-9.715 23.901-17.407 34.84-7.462 10.618-16.191 20.537-26.149 29.74-9.733 8.99-20.811 17.38-33.212 25.142-12.133 7.601-24.987 14.343-38.539 20.215-13.596 5.891-27.838 10.909-42.701 15.046a341.467 341.467 0 01-45.258 9.355c-44.711 6.086-104.694 3.894-146.631-15.97zm167.637-179.922c-4.919-.755-10.488-1.133-16.696-1.133-6.667 0-12.671.791-17.997 2.366-5.105 1.507-9.763 3.79-13.947 6.828-3.499 2.535-6.103 5.6-7.805 9.173-1.81 3.794-2.718 8.391-2.718 13.769 0 4.801.651 8.756 1.945 11.855 1.051 2.522 2.613 4.575 4.662 6.138 1.398 1.068 3.043 2.001 4.944 2.8 3.66.482 7.771.72 12.329.72 5.764 0 11.065-.412 15.883-1.228 4.697-.794 9.077-1.992 13.122-3.572 3.938-1.542 7.437-3.356 10.462-5.427 2.917-1.996 5.387-4.193 7.388-6.567v-.057c1.815-2.144 3.156-4.41 4.016-6.763.85-2.335 1.28-4.966 1.28-7.874 0-3.312-.673-6.268-2.005-8.852-1.433-2.769-3.764-5.417-6.968-7.908-2.148-1.672-4.788-3.095-7.895-4.268zm-14.76-176.774c-6.806 0-12.836.695-18.062 2.075-4.914 1.298-9.229 3.212-12.927 5.73-3.039 2.067-5.27 4.519-6.668 7.315-1.48 2.96-2.222 6.702-2.222 11.204 0 24.148 25.272 20.58 41.707 16.478 6.229-1.554 11.703-3.855 16.4-6.868 4.067-2.613 7.023-5.53 8.851-8.729 1.736-3.039 2.609-6.668 2.609-10.852 0-2.362-.521-4.411-1.554-6.134-5.856-9.767-18.171-10.219-28.134-10.219z"/><path fill="#3ED598" d="M171.782 497.896c-34.441 0-62.096-4.953-82.976-14.855C67.926 473.14 52.75 457 43.279 434.615c-6.025-14.638-10.44-32.18-13.236-52.63-2.8-20.449-4.197-44.233-4.197-71.355 0-40.466 1.723-75.336 5.165-104.607 3.443-29.275 8.396-54.244 14.851-74.906 6.459-20.663 14.424-38.1 23.892-52.308 12.484-18.939 32.505-33.898 60.056-44.876 27.552-10.978 66.511-16.465 116.878-16.465 39.172 0 70.709 4.41 94.601 13.235 23.893 8.825 41.217 20.772 51.982 35.839 10.761 15.067 16.144 32.287 16.144 51.661 0 28.411-9.042 51.548-27.122 69.415-18.08 17.867-41.759 31.966-71.03 42.297v2.583c31.854 3.013 56.714 13.023 74.581 30.026 17.867 17.003 26.796 41.651 26.796 73.938 0 23.676-6.884 45.306-20.662 64.897-13.774 19.586-32.179 36.589-55.212 51.01-23.028 14.424-48.861 25.615-77.485 33.581-28.628 7.961-57.794 11.946-87.499 11.946zm43.266-114.942c12.914 0 24.322-1.937 34.223-5.813 9.902-3.872 17.759-9.255 23.567-16.144 5.812-6.884 8.721-14.85 8.721-23.892 0-11.191-4.845-20.554-14.529-28.09-9.689-7.531-24.648-11.299-44.881-11.299-15.926 0-29.379 3.98-40.357 11.946-10.978 7.965-16.469 19.482-16.469 34.549 0 13.344 4.093 23.137 12.271 29.379 8.179 6.242 20.663 9.364 37.454 9.364zm0-184.037c18.939 0 34.436-3.872 46.49-11.62 12.055-7.749 18.08-18.297 18.08-31.641 0-9.902-4.84-17.976-14.528-24.218-9.685-6.242-23.355-9.363-41.005-9.363-15.926 0-28.949 3.446-39.063 10.331-10.119 6.889-15.176 17.007-15.176 30.352 0 12.054 4.089 21.092 12.267 27.121 8.179 6.026 19.157 9.038 32.935 9.038z"/><path fill="#fff" d="M105.358 81.57c3.308-3.399 8.751-3.477 12.15-.17 3.399 3.308 3.477 8.752.169 12.151-8.044 8.278-15.149 19.907-21.027 35.222-5.773 15.045-10.31 33.477-13.318 55.559-.629 4.701-4.957 7.996-9.658 7.366-4.702-.629-7.996-4.957-7.367-9.658 3.212-23.549 8.066-43.253 14.256-59.388 6.732-17.546 15.123-31.129 24.795-41.082zM64.176 208.61c.187-4.736 4.184-8.43 8.92-8.243 4.736.186 8.43 4.184 8.244 8.921l-.187 4.701c-.187 4.736-4.185 8.43-8.92 8.243-4.736-.187-8.431-4.184-8.244-8.921l.187-4.701z"/></g></svg>