<svg xmlns="http://www.w3.org/2000/svg" shape-rendering="geometricPrecision" text-rendering="geometricPrecision" image-rendering="optimizeQuality" fill-rule="evenodd" clip-rule="evenodd" viewBox="0 0 428 512.44"><path fill-rule="nonzero" d="M0 512.44V0h265.66c49.19 0 84.32 9.56 105.36 28.69 21.04 19.13 31.56 47.01 31.56 83.63 0 36.63-6.69 64.91-20.08 84.86-13.4 19.95-31.29 32.94-53.71 38.95v4.92C394.93 252.53 428 297.63 428 376.34c0 41-10.93 73.92-32.8 98.8-21.86 24.87-55.48 37.3-100.85 37.3H0zm227.94-204.15H151.7v83.63h75.42c22.96 0 34.43-13.95 34.43-41.82 0-27.88-11.24-41.81-33.61-41.81zm-12.3-195.97H151.7v76.25h63.12c20.77 0 31.16-12.7 31.16-38.12 0-25.42-10.15-38.13-30.34-38.13z"/></svg>